# xmcd
#
# Track frame offsets:
#	150
#	18330
#	35380
#	53537
#	70505
#	86580
#	105900
#	125595
#	141982
#	158885
#
# Disc length: 2316 seconds
#
# Revision: 1
# Processed by: cddbd v1.4PL0 Copyright (c) Steve Scherf et al.
# Submitted via: audiograbber 1.82.01
#
DISCID=76090a0a
DTITLE=Joe English - Back To Basics - English 101
DYEAR=1987
DGENRE=Gospel
TTITLE0=Take Me Back
TTITLE1=Truth and Lies
TTITLE2=Remember
TTITLE3=Too Much
TTITLE4=Hot Fire
TTITLE5=The Secrets Of The Kingdom
TTITLE6=Stop Looking Over Love
TTITLE7=Behold The Glory
TTITLE8=This Must Be Love
TTITLE9=How Sweet It Is
EXTD=
EXTT0=
EXTT1=
EXTT2=
EXTT3=
EXTT4=
EXTT5=
EXTT6=
EXTT7=
EXTT8=
EXTT9=
PLAYORDER=
